#Comment line ignore any data following # character 
#Hierarchical Translation and Rotation (.htr) file 
[Header]	
#Header keywords are followed by a single value 
FileType HTR		#Single word string
DataType HTRS		#Translation followed by rotation and scale data
FileVersion 1		#integer
NumSegments 84		#integer
NumFrames 2		#integer
DataFrameRate 30		#integer, data frame rate in this file
EulerRotationOrder ZYX
CalibrationUnits mm
RotationUnits Degrees
GlobalAxisofGravity Y
BoneLengthAxis Y
ScaleFactor 1.00
[SegmentNames&Hierarchy]
#CHILD	PARENT
MASTER GLOBAL
root MASTER
chest root
L_mid_tent01 root
R_mid_tent01 root
spine01 root
Bip01_Neck chest
L_humerus chest
R_humerus chest
weapon_bone chest
Bip01_Head Bip01_Neck
eye_left_bone Bip01_Head
eye_right_bone Bip01_Head
L_forearm L_humerus
L_front_hand L_forearm
L_weapon_bone L_forearm
L_front_hand01_01 L_front_hand
L_front_hand02_01 L_front_hand
L_front_hand03_01 L_front_hand
L_front_hand01_02 L_front_hand01_01
L_front_hand02_02 L_front_hand02_01
L_front_hand03_02 L_front_hand03_01
R_forearm R_humerus
R_front_hand R_forearm
R_weapon_bone R_forearm
R_front_hand01_01 R_front_hand
R_front_hand02_01 R_front_hand
R_front_hand03_01 R_front_hand
R_front_hand01_02 R_front_hand01_01
R_front_hand02_02 R_front_hand02_01
R_front_hand03_02 R_front_hand03_01
null_rope01_connect L_mid_tent01
Rope1_Seg01 null_rope01_connect
Rope1_Seg02 Rope1_Seg01
Rope1_Seg03 Rope1_Seg02
Rope1_Seg04 Rope1_Seg03
Rope1_Seg05 Rope1_Seg04
Rope1_Seg06 Rope1_Seg05
Rope1_Seg07 Rope1_Seg06
Rope1_Seg09 Rope1_Seg07
L_mid_hand01 Rope1_Seg09
L_mid_hand02 Rope1_Seg09
L_mid_hand03 Rope1_Seg09
null_rope02_connect R_mid_tent01
Rope2_Seg01 null_rope02_connect
Rope2_Seg02 Rope2_Seg01
Rope2_Seg03 Rope2_Seg02
Rope2_Seg04 Rope2_Seg03
Rope2_Seg05 Rope2_Seg04
Rope2_Seg06 Rope2_Seg05
Rope2_Seg07 Rope2_Seg06
Rope2_Seg09 Rope2_Seg07
R_mid_hand01 Rope2_Seg09
R_mid_hand02 Rope2_Seg09
R_mid_hand03 Rope2_Seg09
spine02 spine01
spine03 spine02
pelvis spine03
null_rope03_connect pelvis
null_rope04_connect pelvis
Rope3_Seg01 null_rope03_connect
Rope3_Seg02 Rope3_Seg01
Rope3_Seg03 Rope3_Seg02
Rope3_Seg04 Rope3_Seg03
Rope3_Seg05 Rope3_Seg04
Rope3_Seg06 Rope3_Seg05
Rope3_Seg07 Rope3_Seg06
Rope3_Seg08 Rope3_Seg07
Rope3_Seg09 Rope3_Seg08
R_rear_hand01 Rope3_Seg09
R_rear_hand02 Rope3_Seg09
R_rear_hand03 Rope3_Seg09
Rope4_Seg01 null_rope04_connect
Rope4_Seg02 Rope4_Seg01
Rope4_Seg03 Rope4_Seg02
Rope4_Seg04 Rope4_Seg03
Rope4_Seg05 Rope4_Seg04
Rope4_Seg06 Rope4_Seg05
Rope4_Seg07 Rope4_Seg06
Rope4_Seg08 Rope4_Seg07
Rope4_Seg09 Rope4_Seg08
L_rear_hand01 Rope4_Seg09
L_rear_hand02 Rope4_Seg09
L_rear_hand03 Rope4_Seg09
[BasePosition]
#SegmentName Tx, Ty, Tz, Rx, Ry, Rz, BoneLength
MASTER 0.000000 0.000000 0.000000 -90.000000 0.000000 0.000000 10.000000 
root 0.000000 0.000000 0.000000 0.000000 0.000000 0.000000 10.000000 
chest 0.000000 0.000000 0.000000 0.000000 0.000000 0.000000 10.000000 
L_mid_tent01 0.000000 0.000000 0.000000 0.000000 0.000000 0.000000 10.000000 
R_mid_tent01 0.000000 0.000000 0.000000 0.000000 0.000000 0.000000 10.000000 
spine01 0.000000 0.000000 0.000000 0.000000 0.000000 0.000000 10.000000 
Bip01_Neck 0.000000 0.000000 0.000000 0.000000 0.000000 0.000000 10.000000 
L_humerus 0.000000 0.000000 0.000000 0.000000 0.000000 0.000000 10.000000 
R_humerus 0.000000 0.000000 0.000000 0.000000 0.000000 0.000000 10.000000 
weapon_bone 0.000000 0.000000 0.000000 0.000000 0.000000 0.000000 10.000000 
Bip01_Head 0.000000 0.000000 0.000000 0.000000 0.000000 0.000000 10.000000 
eye_left_bone 0.000000 0.000000 0.000000 0.000000 0.000000 0.000000 10.000000 
eye_right_bone 0.000000 0.000000 0.000000 0.000000 0.000000 0.000000 10.000000 
L_forearm 0.000000 0.000000 0.000000 0.000000 0.000000 0.000000 10.000000 
L_front_hand 0.000000 0.000000 0.000000 0.000000 0.000000 0.000000 10.000000 
L_weapon_bone 0.000000 0.000000 0.000000 0.000000 0.000000 0.000000 10.000000 
L_front_hand01_01 0.000000 0.000000 0.000000 0.000000 0.000000 0.000000 10.000000 
L_front_hand02_01 0.000000 0.000000 0.000000 0.000000 0.000000 0.000000 10.000000 
L_front_hand03_01 0.000000 0.000000 0.000000 0.000000 0.000000 0.000000 10.000000 
L_front_hand01_02 0.000000 0.000000 0.000000 0.000000 0.000000 0.000000 10.000000 
L_front_hand02_02 0.000000 0.000000 0.000000 0.000000 0.000000 0.000000 10.000000 
L_front_hand03_02 0.000000 0.000000 0.000000 0.000000 0.000000 0.000000 10.000000 
R_forearm 0.000000 0.000000 0.000000 0.000000 0.000000 0.000000 10.000000 
R_front_hand 0.000000 0.000000 0.000000 0.000000 0.000000 0.000000 10.000000 
R_weapon_bone 0.000000 0.000000 0.000000 0.000000 0.000000 0.000000 10.000000 
R_front_hand01_01 0.000000 0.000000 0.000000 0.000000 0.000000 0.000000 10.000000 
R_front_hand02_01 0.000000 0.000000 0.000000 0.000000 0.000000 0.000000 10.000000 
R_front_hand03_01 0.000000 0.000000 0.000000 0.000000 0.000000 0.000000 10.000000 
R_front_hand01_02 0.000000 0.000000 0.000000 0.000000 0.000000 0.000000 10.000000 
R_front_hand02_02 0.000000 0.000000 0.000000 0.000000 0.000000 0.000000 10.000000 
R_front_hand03_02 0.000000 0.000000 0.000000 0.000000 0.000000 0.000000 10.000000 
null_rope01_connect 0.000000 0.000000 0.000000 0.000000 0.000000 0.000000 10.000000 
Rope1_Seg01 0.000000 0.000000 0.000000 0.000000 0.000000 0.000000 10.000000 
Rope1_Seg02 0.000000 0.000000 0.000000 0.000000 0.000000 0.000000 10.000000 
Rope1_Seg03 0.000000 0.000000 0.000000 0.000000 0.000000 0.000000 10.000000 
Rope1_Seg04 0.000000 0.000000 0.000000 0.000000 0.000000 0.000000 10.000000 
Rope1_Seg05 0.000000 0.000000 0.000000 0.000000 0.000000 0.000000 10.000000 
Rope1_Seg06 0.000000 0.000000 0.000000 0.000000 0.000000 0.000000 10.000000 
Rope1_Seg07 0.000000 0.000000 0.000000 0.000000 0.000000 0.000000 10.000000 
Rope1_Seg09 0.000000 0.000000 0.000000 0.000000 0.000000 0.000000 10.000000 
L_mid_hand01 0.000000 0.000000 0.000000 0.000000 0.000000 0.000000 10.000000 
L_mid_hand02 0.000000 0.000000 0.000000 0.000000 0.000000 0.000000 10.000000 
L_mid_hand03 0.000000 0.000000 0.000000 0.000000 0.000000 0.000000 10.000000 
null_rope02_connect 0.000000 0.000000 0.000000 0.000000 0.000000 0.000000 10.000000 
Rope2_Seg01 0.000000 0.000000 0.000000 0.000000 0.000000 0.000000 10.000000 
Rope2_Seg02 0.000000 0.000000 0.000000 0.000000 0.000000 0.000000 10.000000 
Rope2_Seg03 0.000000 0.000000 0.000000 0.000000 0.000000 0.000000 10.000000 
Rope2_Seg04 0.000000 0.000000 0.000000 0.000000 0.000000 0.000000 10.000000 
Rope2_Seg05 0.000000 0.000000 0.000000 0.000000 0.000000 0.000000 10.000000 
Rope2_Seg06 0.000000 0.000000 0.000000 0.000000 0.000000 0.000000 10.000000 
Rope2_Seg07 0.000000 0.000000 0.000000 0.000000 0.000000 0.000000 10.000000 
Rope2_Seg09 0.000000 0.000000 0.000000 0.000000 0.000000 0.000000 10.000000 
R_mid_hand01 0.000000 0.000000 0.000000 0.000000 0.000000 0.000000 10.000000 
R_mid_hand02 0.000000 0.000000 0.000000 0.000000 0.000000 0.000000 10.000000 
R_mid_hand03 0.000000 0.000000 0.000000 0.000000 0.000000 0.000000 10.000000 
spine02 0.000000 0.000000 0.000000 0.000000 0.000000 0.000000 10.000000 
spine03 0.000000 0.000000 0.000000 0.000000 0.000000 0.000000 10.000000 
pelvis 0.000000 0.000000 0.000000 0.000000 0.000000 0.000000 10.000000 
null_rope03_connect 0.000000 0.000000 0.000000 0.000000 0.000000 0.000000 10.000000 
null_rope04_connect 0.000000 0.000000 0.000000 0.000000 0.000000 0.000000 10.000000 
Rope3_Seg01 0.000000 0.000000 0.000000 0.000000 0.000000 0.000000 10.000000 
Rope3_Seg02 0.000000 0.000000 0.000000 0.000000 0.000000 0.000000 10.000000 
Rope3_Seg03 0.000000 0.000000 0.000000 0.000000 0.000000 0.000000 10.000000 
Rope3_Seg04 0.000000 0.000000 0.000000 0.000000 0.000000 0.000000 10.000000 
Rope3_Seg05 0.000000 0.000000 0.000000 0.000000 0.000000 0.000000 10.000000 
Rope3_Seg06 0.000000 0.000000 0.000000 0.000000 0.000000 0.000000 10.000000 
Rope3_Seg07 0.000000 0.000000 0.000000 0.000000 0.000000 0.000000 10.000000 
Rope3_Seg08 0.000000 0.000000 0.000000 0.000000 0.000000 0.000000 10.000000 
Rope3_Seg09 0.000000 0.000000 0.000000 0.000000 0.000000 0.000000 10.000000 
R_rear_hand01 0.000000 0.000000 0.000000 0.000000 0.000000 0.000000 10.000000 
R_rear_hand02 0.000000 0.000000 0.000000 0.000000 0.000000 0.000000 10.000000 
R_rear_hand03 0.000000 0.000000 0.000000 0.000000 0.000000 0.000000 10.000000 
Rope4_Seg01 0.000000 0.000000 0.000000 0.000000 0.000000 0.000000 10.000000 
Rope4_Seg02 0.000000 0.000000 0.000000 0.000000 0.000000 0.000000 10.000000 
Rope4_Seg03 0.000000 0.000000 0.000000 0.000000 0.000000 0.000000 10.000000 
Rope4_Seg04 0.000000 0.000000 0.000000 0.000000 0.000000 0.000000 10.000000 
Rope4_Seg05 0.000000 0.000000 0.000000 0.000000 0.000000 0.000000 10.000000 
Rope4_Seg06 0.000000 0.000000 0.000000 0.000000 0.000000 0.000000 10.000000 
Rope4_Seg07 0.000000 0.000000 0.000000 0.000000 0.000000 0.000000 10.000000 
Rope4_Seg08 0.000000 0.000000 0.000000 0.000000 0.000000 0.000000 10.000000 
Rope4_Seg09 0.000000 0.000000 0.000000 0.000000 0.000000 0.000000 10.000000 
L_rear_hand01 0.000000 0.000000 0.000000 0.000000 0.000000 0.000000 10.000000 
L_rear_hand02 0.000000 0.000000 0.000000 0.000000 0.000000 0.000000 10.000000 
L_rear_hand03 0.000000 0.000000 0.000000 0.000000 0.000000 0.000000 10.000000 
#Beginning of Data. Separated by tabs
#Fr	Tx	Ty	Tz	Rx	Ry	Rz	SF
[MASTER]
26 -676.758484 -1658.644287 1461.517334 0.001346 0.001923 -20.001186 2311.954834
27 -620.683594 -1596.468872 1403.250854 0.001346 0.001923 -20.001186 2214.288818
[root]
26 57.261925 48.971863 875.785522 -84.727066 -7.297236 -92.053352 879.020752
27 58.063618 53.607788 844.539490 -85.476105 -7.336270 -91.393799 848.228760
[chest]
26 -84.512650 -34.090519 0.000000 4.642983 -1.659020 146.365494 91.129311
27 -84.512650 -34.090519 0.000000 6.265810 -2.871060 146.772583 91.129311
[L_mid_tent01]
26 27.298851 22.179296 -249.918762 2.445786 58.384914 79.140831 252.381729
27 27.298849 22.179298 -249.918762 2.991280 61.322777 78.949326 252.381729
[R_mid_tent01]
26 23.228794 24.509907 226.238495 94.276131 -70.419235 148.588425 228.744751
27 23.228794 24.509907 226.238495 90.790497 -68.224045 151.910294 228.744751
[spine01]
26 -0.361383 -0.195265 0.000000 -0.000001 -0.000007 22.052340 0.410763
27 -0.361383 -0.195265 0.000000 -0.000001 -0.000007 22.052340 0.410763
[Bip01_Neck]
26 165.484543 71.581718 0.000119 176.643677 -1.657967 43.431911 180.302734
27 165.484543 71.581718 0.000119 176.643677 -1.657967 43.431915 180.302734
[L_humerus]
26 -13.983130 -135.272980 -120.471481 178.964996 1.892242 -146.979980 181.680161
27 -13.983130 -135.272980 -120.471481 178.964996 1.892241 -146.979980 181.680161
[R_humerus]
26 -13.983309 -135.273102 125.287651 176.357590 6.146129 -145.149719 184.909012
27 -13.983309 -135.273102 125.287651 176.357590 6.146129 -145.149719 184.909012
[weapon_bone]
26 235.964890 -300.705902 0.000000 0.000000 -89.951546 -128.212341 382.234833
27 235.964890 -300.705902 0.000000 0.000000 -89.951546 -128.212341 382.234833
[Bip01_Head]
26 213.333496 186.023254 7.804565 -3.007972 2.795767 -43.900528 283.154968
27 213.326721 186.042328 7.559280 -3.232141 2.796334 -43.897820 283.155762
[eye_left_bone]
26 -24.626970 125.451866 -64.772606 0.000000 -90.000000 -99.840431 143.318359
27 -24.626970 125.451866 -64.772606 0.000000 -90.000000 -99.840431 143.318359
[eye_right_bone]
26 -24.626970 125.451866 64.327362 0.000000 -89.965736 80.156380 143.117676
27 -24.626970 125.451866 64.327362 0.000000 -89.965736 80.156380 143.117676
[L_forearm]
26 322.776093 0.000000 -0.000119 0.001130 -0.002057 -147.582291 322.776093
27 322.776093 0.000000 -0.000119 0.001130 -0.002057 -147.582291 322.776093
[L_front_hand]
26 241.149185 -0.042021 -3.300071 -173.961227 -1.835755 -27.422628 241.171753
27 241.149185 -0.042021 -3.300071 -173.617966 -1.835607 -27.422712 241.171753
[L_weapon_bone]
26 156.183838 0.000000 0.000000 0.000014 0.000007 0.000001 156.183838
27 156.183838 0.000000 0.000000 0.000014 0.000007 0.000001 156.183838
[L_front_hand01_01]
26 86.095154 20.947098 -0.655860 -0.316671 -0.508989 69.650673 88.609184
27 86.095154 20.947098 -0.655860 -0.313194 -0.510516 69.292137 88.609184
[L_front_hand02_01]
26 86.935165 -11.437475 24.513514 146.262680 -57.035736 -51.827919 91.046425
27 86.935165 -11.437475 24.513514 145.803497 -56.833984 -51.278942 91.046425
[L_front_hand03_01]
26 86.637497 -14.123976 -20.424902 -146.343445 55.253117 -53.648865 90.126129
27 86.637497 -14.123976 -20.424902 -145.915939 55.052746 -53.127773 90.126129
[L_front_hand01_02]
26 71.020905 -0.000179 0.000030 0.000325 -0.002325 -105.902390 71.020905
27 71.020905 -0.000179 0.000030 0.000324 -0.002325 -105.884254 71.020905
[L_front_hand02_02]
26 71.020927 -0.000119 0.000060 0.000325 -0.002325 -105.902390 71.020927
27 71.020927 -0.000119 0.000060 0.000324 -0.002325 -105.884254 71.020927
[L_front_hand03_02]
26 71.020905 -0.000060 0.000060 0.000325 -0.002325 -105.902390 71.020905
27 71.020905 -0.000060 0.000060 0.000324 -0.002325 -105.884254 71.020905
[R_forearm]
26 322.776428 -0.000060 0.000030 0.114825 0.181654 -148.389832 322.776428
27 322.776428 -0.000060 0.000030 0.114825 0.181654 -148.389832 322.776428
[R_front_hand]
26 238.847015 -0.006795 2.210259 -2.635298 -10.645461 -26.312506 238.857239
27 238.847015 -0.006795 2.210259 -2.635298 -10.645460 -26.312506 238.857239
[R_weapon_bone]
26 155.664093 0.002503 -0.000030 0.003487 0.001180 -90.988930 155.664078
27 155.664093 0.002503 -0.000030 0.003487 0.001180 -90.988930 155.664078
[R_front_hand01_01]
26 87.624611 14.231146 22.918642 -145.075150 -56.500622 50.514854 91.683487
27 87.624611 14.231146 22.918642 -144.543777 -56.251026 49.876144 91.683487
[R_front_hand02_01]
26 89.356956 14.367283 -19.491137 145.604095 54.886112 52.981991 92.579636
27 89.356956 14.367283 -19.491137 145.101929 54.640739 52.366726 92.579636
[R_front_hand03_01]
26 87.286232 -22.307278 -0.143439 0.110719 -0.440194 -68.939110 90.091743
27 87.286232 -22.307278 -0.143439 0.107688 -0.440783 -68.507500 90.091743
[R_front_hand01_02]
26 71.020905 0.000060 0.000119 0.002328 -0.000298 104.580070 71.020905
27 71.020905 0.000060 0.000119 0.002328 -0.000297 104.516159 71.020905
[R_front_hand02_02]
26 71.020844 -0.000030 -0.000119 0.002328 -0.000298 104.580070 71.020836
27 71.020844 -0.000030 -0.000119 0.002328 -0.000297 104.516159 71.020836
[R_front_hand03_02]
26 71.020905 0.000000 0.000030 0.002328 -0.000298 104.580070 71.020905
27 71.020905 0.000000 0.000030 0.002328 -0.000297 104.516159 71.020905
[null_rope01_connect]
26 328.732483 0.000000 -0.000238 -146.010162 -26.208075 154.087463 328.732483
27 328.732483 0.000000 -0.000238 -147.309372 -22.969341 155.547485 328.732483
[Rope1_Seg01]
26 -0.000134 0.000000 0.000000 -17.020885 19.875530 155.104446 0.000134
27 -0.000133 0.000000 0.000000 -14.981969 12.635006 162.609116 0.000133
[Rope1_Seg02]
26 139.999863 -0.000179 0.000000 -2.858984 17.394245 -24.873480 139.999863
27 139.999863 -0.000179 0.000000 -4.618793 20.410601 -26.244074 139.999863
[Rope1_Seg03]
26 139.999924 0.000060 -0.000060 9.094768 4.436829 -19.263332 139.999924
27 139.999924 0.000060 -0.000060 6.572411 8.515396 -23.243608 139.999924
[Rope1_Seg04]
26 139.999924 -0.000060 -0.000119 -11.151414 11.604054 -2.963075 139.999924
27 139.999924 -0.000060 -0.000119 -14.549884 14.532304 -3.984222 139.999924
[Rope1_Seg05]
26 139.999832 0.000119 -0.000060 -38.230782 21.349226 10.522914 139.999832
27 139.999832 0.000119 -0.000060 -42.551262 23.240734 12.437244 139.999832
[Rope1_Seg06]
26 139.999954 0.000119 -0.000060 -16.295845 6.440648 11.910277 139.999954
27 139.999954 0.000119 -0.000060 -14.836788 5.325246 12.326904 139.999954
[Rope1_Seg07]
26 139.999985 0.000060 0.000000 -6.649137 1.823107 7.079746 139.999985
27 139.999985 0.000060 0.000000 -5.852701 1.295626 7.056696 139.999985
[Rope1_Seg09]
26 121.602913 0.000119 -0.000089 -89.793175 -1.359789 0.847147 121.602913
27 121.602913 0.000119 -0.000089 -89.793175 -1.359789 0.847147 121.602913
[L_mid_hand01]
26 103.859421 1.038730 8.195221 130.544373 -67.584526 -38.866943 104.187431
27 103.859421 1.038730 8.195221 130.544373 -67.584534 -38.866943 104.187431
[L_mid_hand02]
26 105.572853 -4.139662 -10.864139 -168.923172 43.409309 -73.498886 106.211075
27 105.572853 -4.139662 -10.864139 -168.923172 43.409309 -73.498886 106.211075
[L_mid_hand03]
26 104.641464 17.579376 -3.913581 -6.012628 17.808174 74.893669 106.179977
27 104.641464 17.579376 -3.913581 -6.012628 17.808178 74.893669 106.179977
[null_rope02_connect]
26 328.732849 0.000179 -0.000119 -146.257782 9.263435 -1.123572 328.732849
27 328.732849 0.000179 -0.000119 -145.983292 8.451273 2.057139 328.732849
[Rope2_Seg01]
26 0.000134 0.000000 0.000000 74.031006 5.979811 -12.068007 0.000134
27 0.000133 0.000000 0.000000 77.329140 8.502963 -5.284133 0.000133
[Rope2_Seg02]
26 139.999741 -0.000060 -0.000119 -0.155152 10.687266 -4.544182 139.999756
27 139.999741 -0.000060 -0.000119 -0.021713 9.861014 -4.011977 139.999756
[Rope2_Seg03]
26 140.000107 0.000030 0.000000 -0.102527 13.973836 -5.364247 140.000107
27 140.000107 0.000030 0.000000 -0.288231 12.628680 -5.137177 140.000107
[Rope2_Seg04]
26 139.999802 0.000000 -0.000060 0.180790 14.277454 -4.023801 139.999802
27 139.999802 0.000000 -0.000060 0.097500 14.307912 -3.725120 139.999802
[Rope2_Seg05]
26 139.999985 -0.000060 0.000119 -1.897943 15.325068 -13.755393 139.999985
27 139.999985 -0.000060 0.000119 -0.721142 11.741553 -6.972619 139.999985
[Rope2_Seg06]
26 139.999893 -0.000030 -0.000119 1.406402 16.694374 -19.200760 139.999893
27 139.999893 -0.000030 -0.000119 0.767256 11.964001 -13.610968 139.999893
[Rope2_Seg07]
26 139.999893 0.000060 -0.000060 4.269500 9.479424 -10.735839 139.999893
27 139.999893 0.000060 -0.000060 3.009316 10.297396 -11.510716 139.999893
[Rope2_Seg09]
26 121.338966 0.000089 -0.000060 33.793236 -1.359788 -0.847141 121.338966
27 121.338966 0.000089 -0.000060 33.793236 -1.359788 -0.847141 121.338966
[R_mid_hand01]
26 104.680779 11.144459 -10.335981 -16.857145 45.048359 69.553452 105.778534
27 104.680779 11.144459 -10.335981 -16.212063 45.237247 70.462852 105.778534
[R_mid_hand02]
26 104.070427 2.443552 8.231699 50.118160 -67.241356 38.150024 104.424065
27 104.070427 2.443552 8.231699 49.067368 -67.749771 39.286453 104.424065
[R_mid_hand03]
26 106.028137 -11.221827 -5.996406 -176.912491 15.518663 -75.892738 106.788818
27 106.028137 -11.221827 -5.996406 -177.101105 15.551026 -76.585571 106.788818
[spine02]
26 129.756927 0.001550 0.000119 0.490632 -4.030026 -14.787621 129.756927
27 129.756927 0.001550 0.000119 0.494696 -4.029511 -14.843357 129.756927
[spine03]
26 78.613892 0.081519 -4.899054 1.971236 3.791788 17.639706 78.766434
27 78.613892 0.081520 -4.899054 1.973434 3.790452 17.675909 78.766434
[pelvis]
26 169.435242 0.051022 0.000000 -0.069069 -0.178231 16.454899 169.435257
27 169.435242 0.051022 0.000000 -0.069176 -0.178189 16.524025 169.435257
[null_rope03_connect]
26 -1.257226 -2.466202 137.391083 -72.644119 -67.699646 129.839890 137.418976
27 -1.257226 -2.466202 137.391083 -74.166069 -68.448982 131.177444 137.418976
[null_rope04_connect]
26 -1.259640 -2.480268 -137.844437 -72.644119 -67.699646 129.839890 137.872513
27 -1.259640 -2.480268 -137.844437 -74.166069 -68.448982 131.177444 137.872513
[Rope3_Seg01]
26 0.000000 0.000019 0.000000 23.760769 16.528818 -50.334381 0.000019
27 0.000000 0.000019 0.000000 23.759048 15.954182 -48.532463 0.000019
[Rope3_Seg02]
26 139.999924 -0.000119 0.000060 8.201172 13.540387 -10.932868 139.999924
27 139.999924 -0.000119 0.000060 9.244571 14.355742 -10.267285 139.999924
[Rope3_Seg03]
26 139.999924 -0.000119 0.000119 8.115362 18.302290 -18.258005 139.999924
27 139.999924 -0.000119 0.000119 9.920916 19.633509 -17.642927 139.999924
[Rope3_Seg04]
26 139.999924 0.000119 0.000000 2.758217 5.817962 -13.926714 139.999924
27 139.999924 0.000119 0.000000 3.596332 6.181606 -14.856996 139.999924
[Rope3_Seg05]
26 139.999924 -0.000238 0.000060 -0.814146 -5.852189 0.652407 139.999924
27 139.999924 -0.000238 0.000060 -1.026066 -6.749606 -0.131056 139.999924
[Rope3_Seg06]
26 139.999893 -0.000119 -0.000060 0.324372 -1.464837 -0.868063 139.999893
27 139.999893 -0.000119 -0.000060 0.286809 -1.835489 -1.125771 139.999893
[Rope3_Seg07]
26 139.999771 0.000060 -0.000119 0.486259 -0.756890 -0.733544 139.999771
27 139.999771 0.000060 -0.000119 0.479012 -0.934238 -0.917245 139.999771
[Rope3_Seg08]
26 139.999985 -0.000060 0.000000 0.522742 -0.461236 -0.440618 139.999985
27 139.999985 -0.000060 0.000000 0.518844 -0.574457 -0.562293 139.999985
[Rope3_Seg09]
26 90.185997 -0.000179 -0.000060 89.793228 -1.359877 -0.847183 90.185997
27 90.185997 -0.000179 -0.000060 89.793228 -1.359877 -0.847183 90.185997
[R_rear_hand01]
26 103.366196 -6.073594 -10.757982 -177.431534 24.540588 -73.234825 104.101845
27 103.366196 -6.073594 -10.757982 -177.714203 24.565960 -73.910950 104.101845
[R_rear_hand02]
26 100.509819 12.039542 -7.992327 -13.326716 36.728546 71.413704 101.543350
27 100.509819 12.039542 -7.992327 -12.874829 36.868488 72.167213 101.543350
[R_rear_hand03]
26 101.539970 5.215704 5.435467 72.062202 -71.230415 20.902843 101.819031
27 101.539970 5.215704 5.435467 71.484581 -71.816628 21.513813 101.819031
[Rope4_Seg01]
26 -0.000037 0.000000 0.000000 -62.744217 -32.703552 -159.365875 0.000037
27 -0.000039 0.000000 0.000000 -63.710323 -32.669380 -158.351456 0.000039
[Rope4_Seg02]
26 139.999985 0.000060 0.000119 2.577400 8.667805 0.410356 139.999985
27 139.999985 0.000060 0.000119 3.138499 9.144583 -0.362734 139.999985
[Rope4_Seg03]
26 139.999924 0.000000 -0.000238 7.325575 14.574059 0.035390 139.999924
27 139.999924 0.000000 -0.000238 8.904768 15.297742 -1.482947 139.999924
[Rope4_Seg04]
26 139.999985 0.000000 0.000119 30.714426 23.317221 -2.020716 139.999985
27 139.999985 0.000000 0.000119 33.271286 23.382181 -5.950329 139.999985
[Rope4_Seg05]
26 139.999802 -0.000060 -0.000119 60.881847 17.676430 -13.183691 139.999802
27 139.999802 -0.000060 -0.000119 45.924644 14.110409 -16.273045 139.999802
[Rope4_Seg06]
26 139.999924 0.000000 0.000060 23.055168 -7.271850 -20.330593 139.999924
27 139.999924 0.000000 0.000060 22.066608 -3.679071 -19.733221 139.999924
[Rope4_Seg07]
26 139.999802 0.000000 0.000000 9.653024 -20.052546 -19.979488 139.999802
27 139.999802 0.000000 0.000000 11.932712 -14.165234 -21.774065 139.999802
[Rope4_Seg08]
26 139.999924 0.000000 0.000119 0.646615 -11.053813 -9.477545 139.999924
27 139.999924 0.000000 0.000119 1.397820 -9.590540 -10.787487 139.999924
[Rope4_Seg09]
26 90.185791 0.000060 0.000060 -135.617828 2.228885 0.850567 90.185791
27 90.185791 0.000060 0.000060 -135.617828 2.228885 0.850567 90.185791
[L_rear_hand01]
26 101.696655 -8.392275 -7.654577 -12.874829 -36.868488 107.832764 102.329041
27 101.696655 -8.392275 -7.654577 -12.874829 -36.868488 107.832764 102.329041
[L_rear_hand02]
26 102.726799 -1.568258 5.773216 71.484581 71.816628 158.486160 102.900848
27 102.726799 -1.568258 5.773216 71.484581 71.816628 158.486160 102.900848
[L_rear_hand03]
26 104.552910 9.721220 -10.420293 -177.714203 -24.565960 -106.089035 105.519653
27 104.552910 9.721220 -10.420293 -177.714203 -24.565960 -106.089035 105.519653
